<svg width="48" height="48" viewBox="0 0 48 48" fill="none" xmlns="http://www.w3.org/2000/svg">
<path d="M20.4022 30.6078L11.2911 21.6067C10.6972 21.0128 9.9075 20.6857 9.06769 20.6857C8.49075 20.6857 7.93753 20.84 7.45519 21.1292V10.2934C7.45519 9.74026 7.31109 9.22033 7.05937 8.76836C7.22512 8.71201 7.39997 8.68098 7.57922 8.68098C8.46834 8.68098 9.19162 9.40436 9.19162 10.2935V18.2576C9.19162 18.6806 9.53456 19.0236 9.95756 19.0236C10.3806 19.0236 10.7235 18.6806 10.7235 18.2576V10.2935C10.7235 8.55967 9.31303 7.14911 7.57922 7.14911C6.99544 7.14911 6.43303 7.30952 5.94459 7.60764C5.46815 7.31692 4.90884 7.14911 4.31109 7.14911C2.57728 7.14911 1.16672 8.55967 1.16672 10.2941L1.18003 25.3975C1.18069 26.0741 1.43119 27.0294 1.76278 27.6193C1.76812 27.6288 1.77356 27.6381 1.77947 27.6473L11.2135 42.8751C11.4125 43.2374 11.5919 43.9275 11.5919 44.3342V47.2207C11.5919 47.6437 11.9348 47.9866 12.3578 47.9866C12.7808 47.9866 13.1238 47.6437 13.1238 47.2207V44.3342C13.1238 43.6573 12.8736 42.7018 12.5419 42.1117C12.5365 42.1022 12.5311 42.0929 12.5253 42.0837L3.09094 26.8558C2.892 26.4932 2.71228 25.8029 2.71181 25.396L2.6985 10.2934C2.6985 9.40426 3.42178 8.68089 4.31091 8.68089C5.20003 8.68089 5.92331 9.40426 5.92331 10.2934V23.8301C5.92331 23.8493 5.92481 23.8679 5.92622 23.8866C5.94019 24.6729 6.24572 25.4548 6.84431 26.0535L14.1623 33.3715C14.4615 33.6707 14.9465 33.6707 15.2455 33.3715C15.5447 33.0724 15.5447 32.5874 15.2455 32.2884L7.92759 24.9702C7.62309 24.6657 7.45528 24.2607 7.45528 23.83C7.45528 23.3993 7.62309 22.9944 7.92759 22.6898C8.23209 22.3852 8.63709 22.2175 9.06778 22.2175C9.49847 22.2175 9.90337 22.3853 10.2112 22.693L19.3223 31.6942C20.3356 32.7074 21.1915 34.774 21.1915 36.2069V47.2341C21.1915 47.6571 21.5345 48 21.9575 48C22.3805 48 22.7234 47.6571 22.7234 47.2341V36.2069C22.7234 34.3689 21.7053 31.9108 20.4022 30.6078Z" fill="white"/>
<path d="M43.6891 7.1489C43.0913 7.1489 42.532 7.31671 42.0557 7.60743C41.5672 7.3093 41.0047 7.1489 40.4211 7.1489C38.6872 7.1489 37.2767 8.55946 37.2767 10.2933V18.2574C37.2767 18.6804 37.6196 19.0234 38.0426 19.0234C38.4656 19.0234 38.8086 18.6804 38.8086 18.2574V10.2933C38.8086 9.40415 39.5319 8.68077 40.421 8.68077C40.6002 8.68077 40.7751 8.7118 40.9407 8.76815C40.6889 9.22021 40.5449 9.74005 40.5449 10.2932V21.129C40.0626 20.8399 39.5093 20.6855 38.9324 20.6855C38.0925 20.6855 37.3028 21.0126 36.7123 21.6032L27.5946 30.6109C26.2948 31.9106 25.2767 34.3686 25.2767 36.2067V47.2341C25.2767 47.6571 25.6196 48 26.0426 48C26.4656 48 26.8086 47.6571 26.8086 47.2341V36.2069C26.8086 34.774 27.6645 32.7075 28.6745 31.6975L37.7922 22.6898C38.0967 22.3853 38.5017 22.2175 38.9324 22.2175C39.3631 22.2175 39.768 22.3853 40.0726 22.6898C40.3771 22.9943 40.5449 23.3993 40.5449 23.83C40.5449 24.2608 40.3771 24.6657 40.0726 24.9703L32.7546 32.2883C32.4554 32.5875 32.4554 33.0725 32.7546 33.3715C33.0537 33.6707 33.5387 33.6707 33.8377 33.3715L41.1558 26.0535C41.7545 25.4548 42.0599 24.6728 42.0739 23.8866C42.0752 23.8679 42.0768 23.8491 42.0768 23.8301V10.2934C42.0768 9.40424 42.8002 8.68086 43.6892 8.68086C44.5783 8.68086 45.3017 9.40424 45.3017 10.2926L45.2884 25.3961C45.2881 25.803 45.1082 26.4933 44.9092 26.8559L35.4751 42.0836C35.4694 42.0928 35.4638 42.1022 35.4585 42.1115C35.1267 42.7016 34.8766 43.657 34.8766 44.3341V47.2206C34.8766 47.6436 35.2195 47.9865 35.6425 47.9865C36.0655 47.9865 36.4085 47.6436 36.4085 47.2206V44.3341C36.4085 43.9273 36.5879 43.2373 36.7867 42.875L46.2208 27.6471C46.2265 27.638 46.2321 27.6286 46.2375 27.6192C46.5692 27.0291 46.8197 26.0739 46.8202 25.3973L46.8336 10.2933C46.8334 8.55955 45.4229 7.1489 43.6891 7.1489Z" fill="white"/>
<path d="M34.9787 5.61703C35.4017 5.61703 35.7446 5.27409 35.7446 4.85109V0.765938C35.7446 0.342938 35.4017 0 34.9787 0H13.0213C12.5983 0 12.2554 0.342938 12.2554 0.765938V4.851C12.2554 5.274 12.5983 5.61694 13.0213 5.61694H13.2766V7.14881H13.0213C12.5983 7.14881 12.2554 7.49175 12.2554 7.91475V12C12.2554 12.423 12.5983 12.7659 13.0213 12.7659H13.2766V14.2978H13.0213C12.5983 14.2978 12.2554 14.6408 12.2554 15.0638V19.1488C12.2554 19.5718 12.5983 19.9148 13.0213 19.9148H34.9788C35.4018 19.9148 35.7447 19.5718 35.7447 19.1488V15.0638C35.7447 14.6408 35.4018 14.2978 34.9788 14.2978H34.7235V12.7659H34.9788C35.4018 12.7659 35.7447 12.423 35.7447 12V7.91494C35.7447 7.49194 35.4018 7.149 34.9788 7.149H34.7235V5.61713H34.9787V5.61703ZM34.2127 18.383H13.7872V15.8298H34.2127V18.383ZM34.2127 11.2341H30.8936C30.4706 11.2341 30.1277 11.577 30.1277 12C30.1277 12.423 30.4706 12.7659 30.8936 12.7659H33.1915V14.2978H14.8085V12.7659H27.8298C28.2528 12.7659 28.5957 12.423 28.5957 12C28.5957 11.577 28.2528 11.2341 27.8298 11.2341H13.7872V8.68088H34.2127V11.2341ZM14.8085 7.14891V5.61703H33.1914V7.14891H14.8085ZM34.2127 4.08506H13.7872V1.53188H34.2127V4.08506Z" fill="white"/>
</svg>
