<svg width="48" height="48" viewBox="0 0 48 48" fill="none" xmlns="http://www.w3.org/2000/svg">
<g clip-path="url(#clip0_1_83)">
<path d="M42.8785 9.18157H44.3616C44.879 9.18157 45.2985 8.76203 45.2985 8.24468C45.2985 7.72734 44.879 7.3078 44.3616 7.3078H40.8014C40.2841 7.3078 39.8646 7.72734 39.8646 8.24468V11.8048C39.8646 12.3222 40.2841 12.7417 40.8014 12.7417C41.3188 12.7417 41.7383 12.3222 41.7383 11.8048V10.774C44.581 14.5797 46.1262 19.1973 46.1262 24C46.1262 36.2005 36.2005 46.1262 24 46.1262C11.7995 46.1262 1.87377 36.2005 1.87377 24C1.87377 11.7995 11.7995 1.87377 24 1.87377C24.9023 1.87377 25.8104 1.92858 26.6994 2.0366C27.2123 2.09862 27.6801 1.73333 27.7425 1.21964C27.805 0.706037 27.4392 0.238906 26.9255 0.176509C25.9618 0.0593985 24.9776 0 24 0C17.5894 0 11.5624 2.49642 7.02945 7.02945C2.49642 11.5624 0 17.5894 0 24C0 30.4106 2.49642 36.4376 7.02945 40.9706C11.5624 45.5036 17.5894 48 24 48C30.4106 48 36.4376 45.5036 40.9706 40.9706C45.5036 36.4376 48 30.4106 48 24C48 18.5903 46.1927 13.397 42.8785 9.18157Z" fill="white"/>
<path d="M10.1626 14.1482C9.72533 13.8714 9.14662 14.0016 8.86977 14.4386C6.73095 17.8166 5.78414 21.8792 6.20377 25.8779C6.62958 29.9359 8.45604 33.7627 11.3467 36.6535C14.8352 40.142 19.4176 41.8862 24.0001 41.8862C28.5826 41.8862 33.1649 40.142 36.6535 36.6535C43.6306 29.6764 43.6306 18.3238 36.6535 11.3468C33.7672 8.46062 29.9467 6.63482 25.8954 6.20573C21.9041 5.78272 17.846 6.72214 14.4693 8.85046C14.0315 9.12637 13.9005 9.7049 14.1763 10.1426C14.4522 10.5804 15.0307 10.7115 15.4684 10.4357C21.8334 6.42393 30 7.34329 35.3284 12.6717C41.5749 18.9182 41.5749 29.0819 35.3284 35.3284C29.082 41.575 18.9181 41.575 12.6717 35.3284C7.41694 30.0736 6.4838 21.7098 10.453 15.4411C10.7297 15.0038 10.5997 14.425 10.1626 14.1482Z" fill="white"/>
<path d="M36.1796 24.9521H37.335C37.8523 24.9521 38.2718 24.5325 38.2718 24.0152C38.2718 23.4978 37.8523 23.0783 37.335 23.0783H36.1796C35.6622 23.0783 35.2427 23.4978 35.2427 24.0152C35.2427 24.5325 35.6621 24.9521 36.1796 24.9521Z" fill="white"/>
<path d="M9.72815 23.9848C9.72815 24.5022 10.1477 24.9217 10.665 24.9217H11.8204C12.3377 24.9217 12.7573 24.5022 12.7573 23.9848C12.7573 23.4675 12.3377 23.0479 11.8204 23.0479H10.665C10.1477 23.0479 9.72815 23.4674 9.72815 23.9848Z" fill="white"/>
<path d="M24.9521 11.8204V10.665C24.9521 10.1477 24.5325 9.72815 24.0152 9.72815C23.4978 9.72815 23.0783 10.1477 23.0783 10.665V11.8204C23.0783 12.3377 23.4978 12.7573 24.0152 12.7573C24.5325 12.7573 24.9521 12.3377 24.9521 11.8204Z" fill="white"/>
<path d="M23.0479 36.1796V37.335C23.0479 37.8523 23.4675 38.2718 23.9848 38.2718C24.5022 38.2718 24.9217 37.8523 24.9217 37.335V36.1796C24.9217 35.6622 24.5022 35.2427 23.9848 35.2427C23.4675 35.2427 23.0479 35.6621 23.0479 36.1796Z" fill="white"/>
<path d="M19.304 17.9789C18.938 17.6131 18.345 17.6131 17.9789 17.9789C17.6131 18.3448 17.6131 18.938 17.9789 19.3039L21.1541 22.4791C20.9108 22.9326 20.7724 23.4504 20.7724 24C20.7724 25.7797 22.2203 27.2276 24 27.2276C25.7797 27.2276 27.2276 25.7797 27.2276 24C27.2276 23.4504 27.0891 22.9326 26.8459 22.4791L33.2526 16.0724C33.6184 15.7066 33.6184 15.1134 33.2526 14.7474C32.8866 14.3816 32.2936 14.3816 31.9275 14.7474L25.5208 21.1541C25.0674 20.9108 24.5496 20.7724 24 20.7724C23.4504 20.7724 22.9326 20.9109 22.4792 21.1541L19.304 17.9789ZM25.3538 24C25.3538 24.7465 24.7465 25.3538 24 25.3538C23.2535 25.3538 22.6462 24.7465 22.6462 24C22.6462 23.2535 23.2535 22.6462 24 22.6462C24.7465 22.6462 25.3538 23.2535 25.3538 24Z" fill="white"/>
<path d="M12.6712 12.6712C12.8464 12.4969 12.9465 12.2552 12.9465 12.0088C12.9465 11.7624 12.8464 11.5216 12.6712 11.3464C12.4969 11.1723 12.2561 11.0719 12.0088 11.0719C11.7624 11.0719 11.5207 11.1722 11.3464 11.3464C11.1723 11.5207 11.0719 11.7624 11.0719 12.0088C11.0719 12.2562 11.1722 12.4969 11.3464 12.6712C11.5207 12.8454 11.7624 12.9457 12.0088 12.9457C12.2561 12.9457 12.4969 12.8454 12.6712 12.6712Z" fill="white"/>
<path d="M30.4898 2.79925C30.7372 2.79925 30.979 2.69984 31.1531 2.52474C31.3274 2.35048 31.4277 2.10961 31.4277 1.86236C31.4277 1.61596 31.3275 1.37424 31.1531 1.19998C30.979 1.02582 30.7372 0.925476 30.4898 0.925476C30.2434 0.925476 30.0017 1.02572 29.8275 1.19998C29.6533 1.37424 29.5529 1.61596 29.5529 1.86236C29.5529 2.1097 29.6532 2.35048 29.8275 2.52474C30.0017 2.69984 30.2434 2.79925 30.4898 2.79925Z" fill="white"/>
</g>
<defs>
<clipPath id="clip0_1_83">
<rect width="48" height="48" fill="white"/>
</clipPath>
</defs>
</svg>
